<?xml version="1.0" encoding="UTF-8" standalone="no"?>
<!DOCTYPE svg PUBLIC "-//W3C//DTD SVG 1.1//EN" "http://www.w3.org/Graphics/SVG/1.1/DTD/svg11.dtd">
<svg width="100%" height="100%" viewBox="0 0 1024 1024" version="1.1" xmlns="http://www.w3.org/2000/svg" xmlns:xlink="http://www.w3.org/1999/xlink" xml:space="preserve" xmlns:serif="http://www.serif.com/" style="fill-rule:evenodd;clip-rule:evenodd;stroke-linejoin:round;stroke-miterlimit:2;">
    <rect id="Artboard1" x="0" y="0" width="1024" height="1024" style="fill:none;"/>
    <g id="Artboard11" serif:id="Artboard1">
        <g transform="matrix(1.53628,0,0,1.53628,-274.574,-285.845)">
            <g transform="matrix(7.04595e-17,-1.15069,1.15069,7.04595e-17,-114.074,1388.64)">
                <g transform="matrix(3.66302e-17,0.598216,-0.591877,3.6242e-17,1022.01,229.745)">
                    <path d="M801.908,799.102L630.266,799.102C627.754,799.102 625.351,798.07 623.621,796.248L611.287,783.263C609.669,781.56 608.766,779.3 608.766,776.951L608.766,589.204C608.766,586.677 609.81,584.262 611.65,582.53L623.984,570.92C625.684,569.319 627.931,568.428 630.266,568.428L801.908,568.428C804.243,568.428 806.49,569.319 808.19,570.92L820.524,582.53C822.364,584.262 823.408,586.677 823.408,589.204L823.408,776.951C823.408,779.3 822.506,781.56 820.888,783.263L808.553,796.248C806.823,798.07 804.42,799.102 801.908,799.102Z" style="fill:rgb(36,46,54);"/>
                </g>
                <g transform="matrix(0.79081,0,0,0.79081,121.501,150.344)">
                    <path d="M706.254,585.268L706.254,698.924C706.254,706.558 700.065,712.747 692.431,712.747L578.775,712.747C571.14,712.747 564.951,706.558 564.951,698.924L564.951,585.268C564.951,577.633 571.14,571.444 578.775,571.444L692.431,571.444C700.065,571.444 706.254,577.633 706.254,585.268Z" style="fill:rgb(55,67,74);"/>
                </g>
                <g transform="matrix(1.14486,0,0,1.14486,-106.377,-71.7769)">
                    <path d="M644.174,644.648L605.396,644.648C604.196,644.648 603.223,643.675 603.223,642.475L603.223,632.608C603.223,631.408 604.196,630.435 605.396,630.435L644.174,630.435L644.174,621.867C644.174,621.073 644.608,620.342 645.305,619.961C646.002,619.58 646.852,619.61 647.52,620.039L671.948,635.713C672.571,636.112 672.948,636.802 672.948,637.541C672.948,638.281 672.571,638.97 671.948,639.37L647.52,655.044C646.852,655.473 646.002,655.503 645.305,655.122C644.608,654.741 644.174,654.01 644.174,653.216L644.174,644.648Z" style="fill:rgb(227,227,227);"/>
                </g>
            </g>
            <g>
                <g transform="matrix(-1,0,0,0.572368,977.321,117.776)">
                    <path d="M295.928,567.974L346.704,627.521L359.428,618.638L365.469,654.873L465.321,767.343L465.321,338.515C434.949,338.515 407.222,349.929 386.199,368.697L332.016,317.917L322.085,322.395L292.29,300.006L275.31,305.603L260.894,338.515L238.047,327.292L189.741,392.011L187.989,449.296L176.476,416.499L159.034,465.922L159.206,521.885L170.469,523.197L163.711,552.495L171.867,597.878L191.744,651.322L199.002,651.76L206.01,683.904L249.675,727.394C240.505,692.371 231.538,651.847 224.281,611.092C225.055,587.169 229.86,566.02 237.468,545.441L257.82,521.885L296.114,559.492L295.928,567.974Z" style="fill:rgb(36,46,54);"/>
                </g>
                <g transform="matrix(1,0,0,0.572368,46.6794,117.776)">
                    <path d="M386.199,368.697C407.222,349.929 434.949,338.515 465.321,338.515L465.321,1087.37L429.268,1032.2L427.266,972.291L368.198,900.576L355.934,913.257L356.184,1122.72L294.613,969.667L315.887,939.495L315.637,860.783L295.864,901.013L294.863,616.339L296.114,559.492L257.82,521.885L237.468,545.441C229.86,566.02 225.055,587.169 224.281,611.092C231.538,651.847 240.505,692.371 249.675,727.394L206.01,683.904L199.002,651.76L191.744,651.322L171.867,597.878L163.711,552.495L170.469,523.197L159.206,521.885L159.034,465.922L176.476,416.499L187.989,449.296L189.741,392.011L238.047,327.292L260.894,338.515L275.31,305.603L292.29,300.006L322.085,322.395L332.016,317.917L386.199,368.697ZM340.548,702.294L355.878,800.683L420.015,876.115L442.334,861.392L442.764,818.164L340.548,702.294Z" style="fill:rgb(35,46,54);"/>
                </g>
                <g>
                    <g transform="matrix(1,0,0,0.572368,46.6794,117.776)">
                        <path d="M295.936,567.61L307.965,510.954L316.808,506.924L267.727,450.727L175.699,518.997L159.13,497.012L159.034,465.922L176.476,416.499L187.989,449.296L189.741,392.011L238.047,327.292L260.894,338.515L275.31,305.603L292.29,300.006L322.085,322.395L332.016,317.917L386.199,368.697C395.001,360.839 404.977,354.271 415.831,349.29L431.07,441.546L418.543,463.066L413.937,460.617L429.756,508.893L429.155,667.716L395.316,599.149L408.015,702.385L465.321,767.343L465.321,842.091L406.4,776.942L340.548,702.294L340.893,704.51L318.598,679.858L317.847,709.156L295.026,662.64L294.863,616.339L295.936,567.61Z" style="fill:rgb(55,67,74);"/>
                    </g>
                    <g transform="matrix(1,0,0,0.572368,46.6794,117.776)">
                        <path d="M238.067,327.302L223.126,404.594L197.472,431.378L199.779,378.563L238.047,327.292L238.067,327.302Z" style="fill:rgb(103,114,124);"/>
                    </g>
                    <g transform="matrix(1,0,0,0.572368,46.6794,117.776)">
                        <path d="M311.886,314.731L283.196,369.611L261.295,369.064L286.58,301.888L292.29,300.006L311.886,314.731Z" style="fill:rgb(103,114,124);"/>
                    </g>
                    <g transform="matrix(1,0,0,0.572368,46.6794,117.776)">
                        <path d="M404.994,677.828L375.756,567.917L382.901,540.214L360.218,424.014L334.076,446.851L350.992,410.581L309.936,367.798L292.416,380.37L326.822,320.259L332.016,317.917L386.199,368.697C395.001,360.839 404.977,354.271 415.831,349.29L431.07,441.546L418.543,463.066L413.937,460.617L429.756,508.893L429.155,667.716L395.316,599.149L404.994,677.828Z" style="fill:rgb(103,114,124);"/>
                    </g>
                </g>
                <g transform="matrix(-1,0,0,1,1024,0)">
                    <g transform="matrix(1,0,0,0.572368,46.6794,117.776)">
                        <path d="M295.936,567.61L307.965,510.954L316.808,506.924L267.727,450.727L175.699,518.997L159.13,497.012L159.034,465.922L176.476,416.499L187.989,449.296L189.741,392.011L238.047,327.292L260.894,338.515L275.31,305.603L292.29,300.006L322.085,322.395L332.016,317.917L386.199,368.697C395.001,360.839 404.977,354.271 415.831,349.29L431.07,441.546L418.543,463.066L413.937,460.617L429.756,508.893L429.155,667.716L395.316,599.149L408.015,702.385L465.321,767.343L465.321,842.091L406.4,776.942L340.548,702.294L340.893,704.51L318.598,679.858L317.847,709.156L295.026,662.64L294.863,616.339L295.936,567.61Z" style="fill:rgb(55,67,74);"/>
                    </g>
                    <g transform="matrix(1,0,0,0.572368,46.6794,117.776)">
                        <path d="M238.067,327.302L223.126,404.594L197.472,431.378L199.779,378.563L238.047,327.292L238.067,327.302Z" style="fill:rgb(103,114,124);"/>
                    </g>
                    <g transform="matrix(1,0,0,0.572368,46.6794,117.776)">
                        <path d="M311.886,314.731L283.196,369.611L261.295,369.064L286.58,301.888L292.29,300.006L311.886,314.731Z" style="fill:rgb(103,114,124);"/>
                    </g>
                    <g transform="matrix(1,0,0,0.572368,46.6794,117.776)">
                        <path d="M404.994,677.828L375.756,567.917L382.901,540.214L360.218,424.014L334.076,446.851L350.992,410.581L309.936,367.798L292.416,380.37L326.822,320.259L332.016,317.917L386.199,368.697C395.001,360.839 404.977,354.271 415.831,349.29L431.07,441.546L418.543,463.066L413.937,460.617L429.756,508.893L429.155,667.716L395.316,599.149L404.994,677.828Z" style="fill:rgb(103,114,124);"/>
                    </g>
                </g>
                <g transform="matrix(1,0,0,0.572368,46.6794,117.776)">
                    <path d="M341.528,704.76C341.494,705.021 341.408,705.259 341.28,705.425C341.064,705.704 340.772,705.722 340.545,705.471L319.198,681.867L318.497,709.207C318.485,709.673 318.311,710.079 318.059,710.231C317.806,710.383 317.526,710.25 317.353,709.896L294.532,663.38C294.431,663.176 294.376,662.916 294.375,662.647L294.212,616.346L294.213,616.296L295.285,567.566C295.294,567.158 295.428,566.789 295.636,566.601C295.844,566.412 296.094,566.434 296.29,566.656L347.952,625.233L359.401,617.146C359.57,617.027 359.76,617.037 359.924,617.173C360.089,617.309 360.213,617.56 360.267,617.864L366.705,654.203L465.675,766.389C465.86,766.599 465.972,766.958 465.972,767.343L465.972,842.091C465.972,842.506 465.842,842.888 465.635,843.087C465.427,843.287 465.173,843.274 464.972,843.052L406.052,777.903L406.046,777.896L341.528,704.76Z" style="fill:rgb(100,114,122);"/>
                </g>
                <g transform="matrix(-1,0,0,0.572368,977.321,117.776)">
                    <path d="M341.528,704.76L406.046,777.896L406.052,777.903L464.972,843.052C465.173,843.274 465.427,843.287 465.635,843.087C465.842,842.888 465.972,842.506 465.972,842.091L465.972,767.343C465.972,766.958 465.86,766.599 465.675,766.389L366.705,654.203L360.267,617.864C360.213,617.56 360.089,617.309 359.924,617.173C359.76,617.037 359.57,617.027 359.401,617.146L347.951,625.233L296.288,566.743C296.091,566.521 295.842,566.5 295.634,566.688C295.426,566.877 295.292,567.245 295.283,567.654L294.213,616.296L294.212,616.346L294.375,662.647C294.376,662.916 294.431,663.176 294.532,663.38L317.353,709.896C317.526,710.25 317.806,710.383 318.059,710.231C318.311,710.079 318.485,709.673 318.497,709.207L319.198,681.867L340.545,705.471C340.772,705.722 341.064,705.704 341.28,705.425C341.408,705.259 341.494,705.021 341.528,704.76Z" style="fill:rgb(227,227,227);"/>
                </g>
                <path d="M512,278.29L487.221,296.67C491.467,437.061 491.187,576.948 486.048,716.296L512,740.152L512,278.29Z" style="fill:rgb(103,115,125);"/>
                <g transform="matrix(-1,0,0,1,1024,0)">
                    <path d="M512,278.29L487.221,296.67C491.467,437.061 491.187,576.948 486.048,716.296L512,740.152L512,278.29Z" style="fill:rgb(55,67,75);"/>
                </g>
            </g>
        </g>
    </g>
</svg>
